# xmcd
#
# Track frame offsets: 
#        150
#        17802
#        43764
#        60417
#        81760
#        104939
#        126463
#        145552
#        161819
#        180600
#        203720
#        218019
#        239815
#        255837
#        275317
#
# Disc length: 3708 seconds
#
# Revision: 0
# Processed by: cddbd v1.5.2PL0 Copyright (c) Steve Scherf et al.
# Submitted via: ExactAudioCopy v0.99pb5
#
DISCID=d90e7a0f
DTITLE=Mariah Carey - Playlist: The Very Best Of Mariah Carey
DYEAR=2010
DGENRE=R&B
TTITLE0=Dreamlover
TTITLE1=Bliss
TTITLE2=Melt Away
TTITLE3=Breakdown
TTITLE4=Make It Happen
TTITLE5=Outside
TTITLE6=Vanishing
TTITLE7=Looking In
TTITLE8=Emotions
TTITLE9=Babydoll
TTITLE10=I Am Free
TTITLE11=Fantasy (Feat. O.D.B.)
TTITLE12=Underneath The Stars
TTITLE13=Rainbow - Interlude
TTITLE14=Data Session
EXTD=
EXTT0=
EXTT1=
EXTT2=
EXTT3=
EXTT4=
EXTT5=
EXTT6=
EXTT7=
EXTT8=
EXTT9=
EXTT10=
EXTT11=
EXTT12=
EXTT13=
EXTT14=
PLAYORDER=
